# xmcd CD database file
#
# Track frame offsets:
#	150
#	25030
#	44772
#
# Disc length: 853 seconds
#
# Revision: 3
# Processed by: cddbd v1.5.2PL0 Copyright (c) Steve Scherf et al.
# Submitted via: CDex 1.70beta2
#
DISCID=1f035303
DTITLE=hinaco - 泣き顔スマイル
DYEAR=2010
DGENRE=Pop
TTITLE0=泣き顔スマイル
TTITLE1=満月キラリ
TTITLE2=泣き顔スマイル（planetarium version)
EXTD=YEAR: 2010
EXTT0=
EXTT1=
EXTT2=
PLAYORDER=
